# xmcd CD database file
#
# Track frame offsets:
#	150
#	21210
#	39797
#	60706
#	75693
#	99303
#	118939
#	135245
#	153770
#	170961
#	192043
#	211237
#	249737
#
# Disc length: 4440 seconds
#
# Revision: 0
# Processed by: cddbd v1.5.1PL0 Copyright (c) Steve Scherf et al.
# Submitted via: CDex 1.51
#
DISCID=a411560d
DTITLE=day after tomorrow - ｄａｙ　ａｌｏｎｅ
DYEAR=2005
DGENRE=JPop
TTITLE0=君と逢えた奇蹟
TTITLE1=God bless me!
TTITLE2=せつなさはこの胸の中に
TTITLE3=七つ星を数えたら
TTITLE4=lost angel
TTITLE5=Where so ever
TTITLE6=honesty
TTITLE7=追伸
TTITLE8=ユリノハナ
TTITLE9=瞑想
TTITLE10=そして僕にできるコト
TTITLE11=more than a million miles
TTITLE12=cccd data
EXTD=YEAR: 2005
EXTT0=
EXTT1=
EXTT2=
EXTT3=
EXTT4=
EXTT5=
EXTT6=
EXTT7=
EXTT8=
EXTT9=
EXTT10=
EXTT11=
EXTT12=
PLAYORDER=
